PathFileType	4	(X/Y/Z)	/Users/itak/Documents/Research/Walk-IL/dataset/trc/00378_00012.trc
DataRate	CameraRate	NumFrames	NumMarkers	Units	OrigDataRate	OrigDataStartFrame	OrigNumFrames
100.000000	100.000000	4	54	mm	100.000000	216	346
Frame#	Time	RPSI			LPSI			L3			STRN			T10			C7			CLAV			RBAK			LBAK			LSHO			LUPA			LAEL			LAOL			LWTS			LWPS			LFRA			LIFD			LHPS			LHTS			RSHO			RUPA			RAEL			RAOL			RWTS			RWPS			RFRA			RIFD			RHTS			RHPS			RBHD			LFHD			RFHD			LBHD			RASI			LASI			LKNE			LTHI			LANK			LTIP			LTOE			LMT1			LMT5			LHEE			RKNE			RTHI			RANK			RTIP			RTOE			RMT1			RMT5			RHEE			LHIP			RHIP			*53			
		X1	Y1	Z1	X2	Y2	Z2	X3	Y3	Z3	X4	Y4	Z4	X5	Y5	Z5	X6	Y6	Z6	X7	Y7	Z7	X8	Y8	Z8	X9	Y9	Z9	X10	Y10	Z10	X11	Y11	Z11	X12	Y12	Z12	X13	Y13	Z13	X14	Y14	Z14	X15	Y15	Z15	X16	Y16	Z16	X17	Y17	Z17	X18	Y18	Z18	X19	Y19	Z19	X20	Y20	Z20	X21	Y21	Z21	X22	Y22	Z22	X23	Y23	Z23	X24	Y24	Z24	X25	Y25	Z25	X26	Y26	Z26	X27	Y27	Z27	X28	Y28	Z28	X29	Y29	Z29	X30	Y30	Z30	X31	Y31	Z31	X32	Y32	Z32	X33	Y33	Z33	X34	Y34	Z34	X35	Y35	Z35	X36	Y36	Z36	X37	Y37	Z37	X38	Y38	Z38	X39	Y39	Z39	X40	Y40	Z40	X41	Y41	Z41	X42	Y42	Z42	X43	Y43	Z43	X44	Y44	Z44	X45	Y45	Z45	X46	Y46	Z46	X47	Y47	Z47	X48	Y48	Z48	X49	Y49	Z49	X50	Y50	Z50	X51	Y51	Z51	X52	Y52	Z52	X53	Y53	Z53	X54	Y54	Z54	

217	2.16	604.177734375	932.064697265625	197.6324768066406	583.9982299804688	939.94384765625	68.57483673095703	586.7586669921875	1011.508911132812	134.2922668457031	809.44970703125	1184.207641601562	119.8106231689453	565.15966796875	1114.018676757812	127.0131683349609	587.4578247070312	1365.14453125	107.4754638671875	744.251953125	1296.49951171875	117.8261260986328	548.9221801757812	1217.246337890625	169.4843292236328	571.9752807617188	1327.113037109375	6.223935127258301	657.3477172851562	1351.239501953125	-42.983154296875	647.4047241210938	1231.542236328125	-113.8935165405273	711.6486206054688	1056.55029296875	-147.20947265625	677.5286254882812	1004.517333984375	-88.51084136962891	919.5302734375	1031.451538085938	-140.7419586181641	898.9783935546875	982.224853515625	-204.2897644042969	780.7886962890625	1011.884704589844	-170.3313140869141	1083.054321289062	969.8843383789062	-182.6552734375	983.82177734375	964.3795166015625	-213.9274291992188	1008.661437988281	1013.726257324219	-181.2167205810547	636.6007690429688	1346.882080078125	265.8952026367188	610.9534301757812	1286.892333984375	316.1815185546875	545.9220581054688	1032.754516601562	328.6692504882812	561.0430297851562	1028.714477539062	233.4766387939453	612.2533569335938	791.2741088867188	328.5942993164062	550.1937866210938	795.5233764648438	368.9416809082031	546.4393920898438	965.61279296875	347.5833740234375	558.2498779296875	627.5928955078125	313.57421875	588.6605834960938	686.32958984375	344.3974914550781	527.012939453125	709.7423706054688	362.75390625	622.99560546875	1550.74072265625	196.5310211181641	761.6884155273438	1565.415893554688	52.94885635375977	754.5953369140625	1569.688232421875	176.3372344970703	614.5983276367188	1542.46240234375	35.35873794555664	825.4932861328125	936.0348510742188	223.0531311035156	773.27880859375	940.0111694335938	-36.74319458007812	665.33837890625	447.9938049316406	-18.96403312683105	672.642822265625	592.447998046875	-44.09747314453125	483.8062133789062	40.49301147460938	48.07960891723633	574.8449096679688	226.3700866699219	4.724200248718262	690.0775756835938	35.40801239013672	140.1457824707031	604.8671875	38.36494445800781	157.7148895263672	610.5260009765625	34.97272109985352	51.7420768737793	438.7304382324219	44.3657341003418	97.67527008056641	917.4231567382812	467.9693908691406	259.4276428222656	834.5006103515625	713.58154296875	284.3593139648438	1084.324951171875	64.89963531494141	224.0837097167969	982.3170166015625	361.7962646484375	246.7280883789062	1230.688354492188	139.5281829833984	146.6512908935547	1163.7373046875	110.2516784667969	122.8898010253906	1167.218139648438	86.48714447021484	220.4351806640625	1016.448425292969	26.41481590270996	173.0034942626953	651.9462280273438	943.338623046875	-58.93718719482422	705.7799072265625	908.3157958984375	295.9385070800781	nan	nan	nan	
218	2.17	614.7057495117188	930.3866577148438	198.1815338134766	593.7608642578125	938.1836547851562	69.34023284912109	597.024169921875	1009.311950683594	134.9234161376953	819.21875	1182.39501953125	119.4037322998047	575.3233642578125	1111.788208007812	127.5163726806641	596.80908203125	1362.964233398438	108.0696334838867	753.8253173828125	1294.619262695312	117.7544326782227	559.252685546875	1214.965576171875	170.4030456542969	580.962158203125	1324.853881835938	6.934590816497803	666.0475463867188	1349.121948242188	-42.77472305297852	655.9347534179688	1229.027221679688	-113.205078125	720.4708862304688	1054.195434570312	-145.8721313476562	686.6192626953125	1002.150573730469	-86.94687652587891	928.5427856445312	1030.67333984375	-139.7664489746094	907.9747924804688	981.482421875	-203.4243469238281	789.6829223632812	1010.068359375	-169.0566253662109	1092.221435546875	970.0606079101562	-182.5345764160156	992.88916015625	964.2101440429688	-213.4757537841797	1017.567321777344	1013.541809082031	-180.6111297607422	646.5850219726562	1344.785034179688	266.2921752929688	621.1672973632812	1284.732299804688	316.6470947265625	556.3515625	1030.493896484375	328.9916076660156	572.0110473632812	1026.271118164062	233.4691619873047	621.5618286132812	788.6822509765625	328.3943786621094	559.6678466796875	793.3460693359375	368.9656677246094	556.8192749023438	963.454345703125	347.8486633300781	565.9326782226562	625.5264892578125	312.8976135253906	596.8421630859375	683.7945556640625	343.7610168457031	535.6478881835938	707.7738647460938	362.5324096679688	632.0733642578125	1548.605590820312	196.9682464599609	770.4619140625	1563.651977539062	52.9943733215332	763.6130981445312	1567.939453125	176.4351501464844	623.3231811523438	1540.300903320312	35.8176383972168	836.339111328125	934.2764892578125	222.1243591308594	782.2090454101562	937.9583129882812	-37.50325775146484	672.6259765625	446.1499328613281	-17.78605651855469	680.248779296875	590.5485229492188	-43.10592651367188	483.9198303222656	41.13179397583008	48.57942581176758	578.3547973632812	226.0560760498047	5.480050086975098	690.3953857421875	35.13029098510742	140.0836486816406	605.1790771484375	38.52513885498047	157.8101043701172	610.59765625	34.99653244018555	51.94734573364258	438.9487609863281	45.67327499389648	98.24204254150391	928.853759765625	466.8358459472656	257.9588317871094	846.1441040039062	712.4600219726562	283.0191040039062	1094.867553710938	63.60539245605469	221.9367828369141	993.512451171875	360.3488159179688	244.8968811035156	1240.996826171875	137.885986328125	143.7656555175781	1173.8291015625	108.4843215942383	120.2871475219727	1177.7705078125	85.15372467041016	217.8630981445312	1026.802978515625	24.75073623657227	171.1880187988281	660.8552856445312	941.507568359375	-59.04793548583984	717.0261840820312	906.6366577148438	295.8413696289062	nan	nan	nan	
219	2.18	625.3915405273438	928.9790649414062	198.6407775878906	603.6934204101562	936.560791015625	69.99484252929688	607.423095703125	1007.254211425781	135.3762817382812	829.0535278320312	1180.719604492188	119.0099639892578	585.5760498046875	1109.689697265625	127.8507995605469	606.2177734375	1360.898315429688	108.6472244262695	763.4891967773438	1292.896728515625	117.7019729614258	569.697509765625	1212.771728515625	171.2106018066406	590.0711059570312	1322.758056640625	7.610861301422119	674.8801879882812	1347.174438476562	-42.55279541015625	664.5416870117188	1226.709716796875	-112.5520706176758	729.0867919921875	1051.87744140625	-144.5169219970703	695.50830078125	999.9552612304688	-85.31754302978516	937.4063720703125	1029.323120117188	-138.8123321533203	916.65966796875	980.1885375976562	-202.5242614746094	798.3677368164062	1008.088256835938	-167.7640228271484	1101.041015625	969.0711059570312	-182.3777008056641	1001.588562011719	963.1729736328125	-212.9771118164062	1026.28466796875	1012.453735351562	-180.0180053710938	656.6246948242188	1342.765747070312	266.6867980957031	631.45703125	1282.642700195312	317.09716796875	567.0098876953125	1028.25634765625	329.4202575683594	583.0211791992188	1023.974670410156	233.5027008056641	631.42724609375	786.2036743164062	328.3464965820312	569.7213745117188	791.2089233398438	369.1808471679688	567.51611328125	961.3236694335938	348.2406311035156	574.17529296875	623.522705078125	312.3129272460938	605.64208984375	681.3405151367188	343.2251281738281	544.943359375	705.8252563476562	362.4955139160156	641.1253051757812	1546.583251953125	197.4315490722656	779.189208984375	1562.066162109375	53.06743240356445	772.5869140625	1566.368896484375	176.5567321777344	632.0172729492188	1538.235717773438	36.30581283569336	847.2982788085938	932.760986328125	221.2764739990234	791.34814453125	935.8321533203125	-38.17435836791992	680.1656494140625	444.2707824707031	-16.35500907897949	688.0364379882812	588.5988159179688	-41.85735321044922	484.0645141601562	41.98846054077148	49.22100830078125	581.9794311523438	225.8816680908203	6.444385051727295	690.7763061523438	34.86230850219727	140.0373992919922	605.5899047851562	38.76405334472656	157.9602355957031	610.6805419921875	35.07252883911133	52.22946548461914	439.2029418945312	47.30437088012695	98.97816467285156	940.6187744140625	466.0094604492188	256.1877746582031	858.0595703125	711.63720703125	281.6611328125	1102.778442382812	61.58457946777344	220.1201477050781	1004.43359375	358.7258605957031	242.8660125732422	1249.324340820312	134.0073547363281	141.0657653808594	1181.743408203125	104.9947738647461	117.9188995361328	1185.848510742188	82.37201690673828	215.5988159179688	1034.333129882812	22.8887882232666	169.82080078125	670.0032348632812	939.6215209960938	-59.18081665039062	728.3175048828125	905.3233642578125	295.7256774902344	nan	nan	nan	
220	2.19	636.269775390625	927.8330688476562	199.0499267578125	613.807861328125	935.0848999023438	70.57582855224609	617.9578247070312	1005.363586425781	135.6941833496094	838.9642333984375	1179.19189453125	118.6173095703125	595.879638671875	1107.746948242188	128.0820770263672	615.6939086914062	1358.972778320312	109.2041778564453	773.248046875	1291.335083007812	117.6575927734375	580.2548217773438	1210.683471679688	171.9024658203125	599.3024291992188	1320.846923828125	8.246277809143066	683.8509521484375	1345.405029296875	-42.3244514465332	673.2406005859375	1224.607788085938	-111.9498138427734	737.5333251953125	1049.610473632812	-143.1829071044922	704.213623046875	997.9549560546875	-83.64395141601562	946.1387329101562	1027.418701171875	-137.9035339355469	925.0675659179688	978.36181640625	-201.613525390625	806.8678588867188	1005.966064453125	-166.4882659912109	1109.54248046875	966.9223022460938	-182.1474151611328	1009.966674804688	961.2833251953125	-212.4353637695312	1034.8486328125	1010.470153808594	-179.4326171875	666.7310791015625	1340.839965820312	267.0746765136719	641.8280639648438	1280.636352539062	317.5209655761719	577.8951416015625	1026.067504882812	329.9359741210938	594.058837890625	1021.836547851562	233.5915069580078	641.8651123046875	783.8695068359375	328.4476623535156	580.3692626953125	789.1315307617188	369.582763671875	578.5138549804688	959.2408447265625	348.7459106445312	583.0460815429688	621.5892333984375	311.8646850585938	615.062744140625	678.9871215820312	342.8043518066406	554.94384765625	703.9146728515625	362.6632995605469	650.154052734375	1544.695556640625	197.9179382324219	787.8678588867188	1560.6806640625	53.17061996459961	781.5174560546875	1564.993774414062	176.7020111083984	640.6843872070312	1536.2880859375	36.82108306884766	858.3963623046875	931.4780883789062	220.5128173828125	800.7000732421875	933.6703491210938	-38.75196075439453	687.9104614257812	442.4001770019531	-14.74479866027832	696.0122680664062	586.6376342773438	-40.43534851074219	484.2560729980469	43.10539627075195	49.98357772827148	585.7465209960938	225.879150390625	7.566691398620605	691.202392578125	34.60509872436523	140.0035858154297	606.1113891601562	39.11588287353516	158.1547088623047	610.7846069335938	35.20602035522461	52.57130432128906	439.5109558105469	49.30777740478516	99.86296081542969	952.6217651367188	465.4269104003906	254.1889953613281	870.152099609375	711.0381469726562	280.35595703125	1108.499267578125	59.04737091064453	218.5967254638672	1015.119934082031	356.9978332519531	240.6371765136719	1256.037475585938	128.1459197998047	138.4813537597656	1187.846069335938	100.0290451049805	115.7299346923828	1191.86962890625	78.39292907714844	213.5756072998047	1039.448120117188	21.04600715637207	168.8470916748047	679.365478515625	937.7130737304688	-59.29187774658203	739.6890869140625	904.3573608398438	295.6147766113281	nan	nan	nan	
